<svg xmlns="http://www.w3.org/2000/svg" viewBox="0 0 430 430">
  <defs>
    <style>
      .cls-1 {
        isolation: isolate;
      }

      .cls-2, .cls-6 {
        fill: #f9c9c0;
      }

      .cls-3 {
        fill: #4bb3fd;
      }

      .cls-4, .cls-5 {
        fill: #e83a30;
      }

      .cls-5, .cls-6, .cls-8 {
        mix-blend-mode: multiply;
        opacity: 0.5;
      }

      .cls-7, .cls-8 {
        fill: #b26836;
      }

      .cls-9 {
        fill: #ebe6ef;
      }
    </style>
  </defs>
  <g class="cls-1">
    <g id="Warstwa_1" data-name="Warstwa 1">
      <g>
        <path class="cls-2" d="M275.87,139.72l-.36,10.43-.5,14.42-.4,11.46a59.62,59.62,0,0,1-93.44,47,60.46,60.46,0,0,1-7.54-6.18A59.4,59.4,0,0,1,155.47,176l-.4-11.46L154.6,151l-.51-14.71c39.08-1.63,70.28-25.94,84.83-60.1C271.7,99.56,270,120,275.87,139.72Z"/>
        <rect class="cls-3" x="156.23" y="135.62" width="46.49" height="28.95"/>
        <rect class="cls-3" x="230.66" y="135.62" width="46.49" height="28.95"/>
        <path class="cls-4" d="M339.5,325.26V353a15,15,0,0,1-13.28,14.9l-29,3.36a85.26,85.26,0,0,0-23.07,6,154,154,0,0,1-118.53.12l-.2-.08a89.76,89.76,0,0,0-24.07-6.26l-27.53-3.17A15,15,0,0,1,90.5,353V325.26a83,83,0,0,1,83-83h7.63a33.88,33.88,0,0,0,67.75,0h7.62A83,83,0,0,1,339.5,325.26Z"/>
        <path class="cls-2" d="M248.88,223v19.25a33.88,33.88,0,0,1-67.75,0V223a59.64,59.64,0,0,0,67.75,0Z"/>
        <path class="cls-5" d="M181.84,248.82c-28.16,7.12-54.92,25.71-62.64,38.81-9.48,16.09-7.43,81.21-7.43,81.21l-8-.92A15,15,0,0,1,90.5,353V325.26a82.92,82.92,0,0,1,83-83h7.63a30.94,30.94,0,0,0,.25,3.75c0,.31.07.61.12.91l.09.59C181.66,248,181.75,248.39,181.84,248.82Z"/>
        <path class="cls-6" d="M248.88,223s-13.5,21.7-47.74,22.93a92.6,92.6,0,0,0-19.3,2.88c-.09-.43-.18-.87-.25-1.31l-.09-.59c-.05-.3-.09-.6-.12-.91a30.94,30.94,0,0,1-.25-3.75V223a59.64,59.64,0,0,0,67.75,0Z"/>
        <path class="cls-7" d="M154,136.31c39.08-1.63,70.28-25.94,84.83-60.1,32.79,23.36,31,43.82,37,63.53,14.38-19.65,11.56-58.75,1.5-74.17-8.38-12.84-23.67-17-23.67-17-21.79-5.29-44.08,2.54-55.13,7.5a14.15,14.15,0,0,1-14-1.37L168.62,43.37a13.08,13.08,0,0,0-18.57,3,81.07,81.07,0,0,0-12.82,33.42c-4.93,32.87,16.91,56.38,16.91,56.38Z"/>
        <path class="cls-8" d="M270.92,58.23a41,41,0,0,0-6.44-2.54C242.69,50.41,217.21,61,206.16,66c-4.6,2.06-13.19,4.21-17.29,1.28L173,55.92a13.07,13.07,0,0,0-18.56,3C149,66.74,147,75.75,144.87,89.72c-3,20.1,4,36.69,9.87,46.55l-.71,0,.11-.11s-21.85-23.51-16.91-56.38A80.93,80.93,0,0,1,150.05,46.4a13.07,13.07,0,0,1,18.56-3L184.49,54.7a14.16,14.16,0,0,0,14,1.37c11.05-5,33.34-12.79,55.14-7.5A48,48,0,0,1,270.92,58.23Z"/>
        <path class="cls-4" d="M202.72,168.07H156.23a3.5,3.5,0,0,1-3.5-3.5V135.62a3.5,3.5,0,0,1,3.5-3.5h46.49a3.5,3.5,0,0,1,3.5,3.5v28.95A3.5,3.5,0,0,1,202.72,168.07Zm-43-7h39.49V139.12H159.73Z"/>
        <path class="cls-4" d="M277.15,168.07H230.66a3.5,3.5,0,0,1-3.5-3.5V135.62a3.5,3.5,0,0,1,3.5-3.5h46.49a3.5,3.5,0,0,1,3.5,3.5v28.95A3.5,3.5,0,0,1,277.15,168.07Zm-43-7h39.49V139.12H234.16Z"/>
        <path class="cls-4" d="M230.66,150.59H202.72a3.5,3.5,0,0,1,0-7h27.94a3.5,3.5,0,0,1,0,7Z"/>
        <path class="cls-9" d="M226,346.55a3.53,3.53,0,0,1-2.08-.69l-22-16.21a3.5,3.5,0,0,1,0-5.63l22-16.21a3.5,3.5,0,1,1,4.16,5.63l-18.18,13.4,18.18,13.39a3.5,3.5,0,0,1-2.08,6.32Z"/>
        <path class="cls-9" d="M288.25,346.55a3.5,3.5,0,0,1-2.08-6.32l18.18-13.39-18.18-13.4a3.5,3.5,0,0,1,4.15-5.63l22,16.21a3.49,3.49,0,0,1,0,5.63l-22,16.21A3.48,3.48,0,0,1,288.25,346.55Z"/>
        <path class="cls-9" d="M251.63,346.55a3.69,3.69,0,0,1-1.08-.17A3.5,3.5,0,0,1,248.3,342l10.5-32.42a3.5,3.5,0,0,1,6.66,2.15L255,344.13A3.5,3.5,0,0,1,251.63,346.55Z"/>
      </g>
    </g>
  </g>
</svg>
